<?xml version="1.0" standalone="no"?>
<!DOCTYPE svg PUBLIC "-//W3C//DTD SVG 20010904//EN"
 "http://www.w3.org/TR/2001/REC-SVG-20010904/DTD/svg10.dtd">
<svg version="1.0" xmlns="http://www.w3.org/2000/svg"
 width="461.000000pt" height="402.000000pt" viewBox="0 0 461.000000 402.000000"
 preserveAspectRatio="xMidYMid meet">

<g transform="translate(0.000000,402.000000) scale(0.100000,-0.100000)"
fill="#000000" stroke="none">
<path d="M2153 3905 c-63 -17 -149 -60 -243 -120 -142 -91 -236 -125 -349
-125 -20 0 -39 -7 -47 -17 -13 -17 -15 -17 -25 1 -25 41 -265 -7 -352 -70 -66
-48 -118 -121 -111 -155 4 -21 -1 -31 -24 -47 -19 -14 -38 -45 -57 -94 -69
-178 -102 -224 -234 -326 -110 -84 -194 -165 -231 -222 -34 -53 -60 -145 -60
-212 l0 -48 38 0 37 0 1 58 c1 95 27 154 103 231 36 36 113 102 171 146 128
98 166 152 240 334 87 218 151 293 276 326 32 8 61 20 65 27 6 9 11 9 21 1 15
-13 291 -5 283 8 -3 4 0 11 6 15 6 3 15 1 19 -6 17 -28 108 10 279 118 122 76
195 107 271 116 76 9 158 -25 315 -131 198 -133 211 -138 455 -158 112 -10
189 -21 227 -35 31 -11 66 -20 78 -20 16 0 17 -2 6 -9 -11 -7 -6 -12 20 -19
23 -6 33 -14 31 -25 -1 -8 9 -32 23 -52 14 -21 39 -75 57 -121 l31 -84 39 0
c45 0 45 -4 -2 112 -59 146 -119 220 -212 266 -77 37 -135 49 -308 62 -200 16
-214 21 -406 146 -133 87 -199 120 -274 134 -67 13 -93 12 -157 -5z m861 -311
c3 -8 10 -13 15 -9 5 3 12 1 16 -5 3 -5 1 -10 -5 -10 -18 0 -50 20 -50 30 0
16 17 11 24 -6z"/>
<path d="M2134 3761 c-28 -10 -115 -57 -193 -105 -79 -47 -166 -93 -194 -101
-30 -9 -91 -15 -151 -15 -232 0 -352 -34 -427 -118 -21 -25 -39 -49 -39 -55 0
-6 -6 -18 -14 -26 -8 -9 -36 -68 -61 -131 -85 -207 -95 -220 -278 -367 -66
-53 -122 -104 -124 -114 -3 -11 -11 -19 -19 -19 -20 0 -73 -119 -80 -182 -6
-48 -4 -58 8 -58 11 0 17 16 20 63 9 113 52 170 229 308 142 111 184 163 238
296 101 245 158 319 275 355 17 5 109 13 205 18 103 6 196 16 230 25 31 9 111
50 177 91 178 109 225 128 309 128 85 0 133 -20 287 -122 139 -92 203 -124
253 -127 22 -1 47 -4 55 -7 8 -3 74 -11 145 -16 72 -6 154 -19 183 -28 77 -25
147 -91 188 -178 23 -47 35 -64 40 -53 6 18 -34 104 -73 155 -37 49 -109 90
-188 106 -65 14 -301 40 -353 39 -13 -1 -59 19 -103 43 -43 24 -81 44 -84 44
-2 0 -16 11 -31 25 -38 35 -136 94 -203 122 -69 28 -156 30 -227 4z"/>
<path d="M2070 3484 c-311 -40 -584 -157 -795 -342 -30 -27 -34 -35 -25 -52 9
-17 8 -20 -9 -20 -11 0 -21 5 -23 12 -6 16 -143 -143 -207 -239 -59 -88 -131
-229 -160 -315 l-20 -58 23 0 c20 0 27 10 46 63 29 82 111 235 168 317 58 81
176 206 262 277 42 35 65 61 65 75 0 12 6 23 13 25 6 3 12 -3 12 -12 0 -13 7
-12 43 10 85 53 220 116 305 145 705 234 1453 -104 1746 -791 35 -82 49 -105
66 -107 26 -4 25 1 -30 136 -180 435 -588 763 -1065 857 -78 16 -346 28 -415
19z"/>
<path d="M1858 3248 c-21 -6 -38 -15 -38 -21 0 -11 50 -189 54 -194 1 -1 24 4
51 12 84 26 117 74 95 141 -22 66 -74 86 -162 62z m111 -44 c29 -36 28 -89 -1
-108 -56 -35 -64 -32 -87 36 -26 75 -26 85 -3 91 45 12 71 6 91 -19z"/>
<path d="M2455 3240 c-25 -27 -11 -38 24 -17 23 14 31 14 46 3 28 -20 12 -58
-39 -94 -25 -18 -53 -40 -62 -50 -16 -16 -15 -17 17 -23 93 -20 119 -21 119
-5 0 10 -13 17 -37 21 -21 4 -42 8 -47 9 -5 1 9 15 32 32 45 31 73 77 65 103
-15 43 -86 56 -118 21z"/>
<path d="M3406 3192 c-10 -17 4 -56 15 -45 6 6 6 19 1 33 -6 15 -11 19 -16 12z"/>
<path d="M1593 3154 c-79 -45 -86 -70 -11 -39 13 5 25 -9 58 -69 23 -42 48
-76 56 -76 22 0 17 17 -27 96 l-40 74 25 12 c27 12 36 38 14 38 -7 -1 -41 -17
-75 -36z"/>
<path d="M2717 3162 c-23 -25 -47 -86 -47 -120 0 -35 37 -72 71 -72 47 0 89
64 89 134 0 35 -5 48 -22 60 -30 21 -71 20 -91 -2z m77 -63 c0 -75 -46 -123
-82 -87 -17 17 -15 46 8 96 17 38 23 43 47 40 26 -3 28 -6 27 -49z"/>
<path d="M3531 3129 c-23 -29 -23 -31 -7 -73 9 -23 23 -51 31 -62 14 -18 14
-18 15 4 0 18 3 20 18 13 9 -5 25 -12 36 -15 18 -6 19 -27 2 -68 -6 -12 15
-35 86 -94 177 -149 231 -218 245 -319 5 -43 7 -45 38 -45 l32 0 -2 55 c-4
106 -71 202 -239 342 -89 74 -169 153 -173 170 -3 13 -52 123 -55 122 -2 0
-14 -14 -27 -30z"/>
<path d="M2167 3113 c-4 -3 -7 -12 -7 -20 0 -15 26 -18 34 -4 7 11 -18 33 -27
24z"/>
<path d="M3440 3055 c0 -13 55 -113 79 -144 14 -19 73 -75 131 -124 153 -129
219 -217 220 -289 0 -19 5 -28 16 -28 13 0 15 7 9 38 -13 72 -65 151 -149 226
-180 161 -226 209 -254 267 -15 32 -33 58 -39 58 -7 1 -13 -1 -13 -4z"/>
<path d="M2941 3018 c-78 -80 -55 -180 39 -166 31 4 79 67 87 112 5 30 1 41
-17 61 -33 35 -70 32 -109 -7z m97 -26 c4 -29 -41 -108 -66 -114 -24 -7 -52 9
-52 28 0 19 27 73 48 97 23 25 66 19 70 -11z"/>
<path d="M1362 3017 c-45 -48 -17 -115 42 -102 64 15 81 12 81 -15 0 -20 -7
-27 -32 -35 -39 -11 -44 -35 -8 -35 33 0 75 42 75 75 0 34 -36 69 -63 61 -60
-17 -79 -18 -87 -5 -11 16 6 38 38 50 13 5 20 13 17 19 -11 17 -41 11 -63 -13z"/>
<path d="M2110 3019 c-119 -14 -227 -46 -325 -94 -106 -52 -205 -123 -205
-147 0 -10 -5 -15 -13 -12 -7 2 -32 -16 -56 -40 -37 -38 -42 -46 -27 -52 12
-4 33 9 74 48 74 70 111 97 197 146 187 106 420 146 622 107 97 -19 93 -19 93
3 0 15 -13 21 -62 30 -95 17 -214 22 -298 11z"/>
<path d="M2486 2973 c-8 -19 -12 -15 49 -38 138 -50 259 -128 358 -229 63 -65
147 -178 163 -219 3 -10 15 -17 26 -17 24 0 21 12 -25 88 -46 77 -87 124 -103
118 -17 -7 -30 14 -15 24 21 12 -191 188 -234 194 -7 1 -19 7 -26 13 -23 17
-79 44 -135 63 -47 17 -53 17 -58 3z"/>
<path d="M1156 2838 c-20 -23 -36 -45 -36 -49 0 -11 142 -129 154 -129 20 1
87 93 74 101 -7 5 -24 -7 -43 -28 l-30 -35 -25 20 -25 20 24 25 c34 37 16 56
-20 21 l-29 -28 -22 22 -22 22 27 28 c27 28 35 52 18 52 -5 0 -26 -19 -45 -42z"/>
<path d="M3185 2829 c-22 -5 -50 -11 -62 -14 -33 -8 -28 -26 13 -58 33 -27 34
-30 19 -47 -23 -25 -9 -47 15 -25 10 9 24 13 35 9 15 -6 17 -3 13 14 -4 16 5
34 34 67 22 24 37 49 33 55 -7 12 -44 12 -100 -1z m33 -49 c-26 -35 -38 -37
-63 -10 -19 21 -17 23 30 33 53 12 57 9 33 -23z"/>
<path d="M2187 2816 c-4 -10 -5 -21 -2 -24 9 -9 17 6 13 25 -3 17 -4 17 -11
-1z"/>
<path d="M2170 2772 c0 -7 -14 -12 -35 -12 -41 0 -45 -13 -9 -36 15 -10 23
-23 19 -31 -3 -8 -8 -27 -12 -41 l-6 -26 28 22 c34 27 40 27 75 2 l28 -20 -10
37 c-9 34 -8 39 16 60 14 12 26 25 26 28 0 3 -22 5 -48 5 -26 0 -53 5 -60 12
-9 9 -12 9 -12 0z"/>
<path d="M1801 2697 c-6 -16 -11 -33 -11 -38 0 -5 -19 -9 -42 -9 l-43 0 32
-26 c28 -22 31 -28 23 -50 -16 -41 -12 -47 20 -24 l30 21 30 -21 31 -22 -7 39
c-5 35 -3 41 23 59 l28 19 -39 5 c-34 4 -41 10 -51 40 l-13 35 -11 -28z"/>
<path d="M2559 2680 c-10 -27 -15 -30 -52 -30 l-42 0 33 -22 c33 -23 35 -34
15 -84 -6 -16 -2 -15 29 4 l35 22 27 -21 c33 -26 39 -21 25 20 -6 18 -10 33
-8 35 2 1 17 12 33 24 l29 22 -41 0 c-36 0 -41 3 -51 30 -5 17 -13 30 -16 30
-3 0 -11 -13 -16 -30z"/>
<path d="M1403 2593 c-73 -111 -78 -123 -54 -123 12 0 29 17 46 48 16 26 44
67 63 90 28 35 32 46 21 53 -8 5 -16 9 -19 9 -3 0 -29 -35 -57 -77z"/>
<path d="M1097 2591 c-12 -20 -14 -32 -6 -36 5 -4 11 -5 13 -4 23 36 34 58 29
63 -11 11 -18 6 -36 -23z"/>
<path d="M3290 2611 c0 -17 36 -54 49 -50 9 3 6 12 -9 32 -21 27 -40 35 -40
18z"/>
<path d="M560 2030 l0 -301 21 12 c24 12 41 3 19 -11 -9 -6 252 -10 693 -10
543 0 707 3 707 12 0 9 3 9 12 0 9 -9 229 -12 930 -12 l918 0 0 234 c0 231 0
234 -22 249 l-23 15 23 24 c13 15 22 37 22 56 l0 32 -1650 0 -1650 0 0 -300z
m490 280 c0 -5 -7 -10 -16 -10 -8 0 -12 5 -9 10 3 6 10 10 16 10 5 0 9 -4 9
-10z m1705 -20 c-3 -5 -14 -10 -23 -10 -15 0 -15 2 -2 10 20 13 33 13 25 0z
m995 -16 c0 -16 -16 -19 -25 -4 -8 13 4 32 16 25 5 -4 9 -13 9 -21z m-352 4
c-6 -18 -28 -21 -28 -4 0 9 7 16 16 16 9 0 14 -5 12 -12z m-1502 -110 l27 -83
27 80 27 80 47 3 47 3 -16 -38 c-84 -199 -85 -202 -85 -278 l0 -75 -45 0 -45
0 0 71 c0 63 -6 84 -50 187 -27 64 -50 120 -50 124 0 4 20 8 44 8 l44 0 28
-82z m412 -89 l-3 -171 -33 -29 c-26 -23 -42 -29 -78 -29 -39 0 -51 5 -80 34
-21 21 -34 44 -34 60 0 24 3 26 44 26 39 0 45 -3 48 -22 5 -33 36 -35 48 -3 5
14 10 89 10 166 l0 139 41 0 40 0 -3 -171z m197 54 l50 -112 3 114 3 115 44 0
45 0 0 -196 0 -195 -45 3 -46 3 -52 115 -52 115 -3 -118 -3 -117 -39 0 -39 0
-3 188 c-2 103 -1 191 0 195 2 4 22 7 45 5 l42 -3 50 -112z m1265 -132 c0 -11
-31 -24 -39 -16 -3 3 1 10 9 15 19 12 30 12 30 1z m-2153 -47 c-3 -3 -12 -4
-19 -1 -8 3 -5 6 6 6 11 1 17 -2 13 -5z m-889 -35 c-2 -6 -8 -10 -13 -10 -5 0
-11 4 -13 10 -2 6 4 11 13 11 9 0 15 -5 13 -11z m880 -40 c-2 -6 -8 -10 -13
-10 -5 0 -11 4 -13 10 -2 6 4 11 13 11 9 0 15 -5 13 -11z m742 -59 c0 -5 -5
-10 -11 -10 -5 0 -7 5 -4 10 3 6 8 10 11 10 2 0 4 -4 4 -10z m-1063 -26 c-3
-3 -12 -4 -19 -1 -8 3 -5 6 6 6 11 1 17 -2 13 -5z m113 -29 c-7 -8 -18 -15
-24 -15 -6 0 -2 7 8 15 25 19 32 19 16 0z"/>
<path d="M253 2206 c3 -8 9 -31 13 -50 3 -20 12 -36 20 -36 19 0 27 -19 14
-35 -9 -11 -7 -35 9 -106 l21 -91 -35 -146 c-20 -81 -38 -155 -41 -164 -5 -16
3 -18 78 -18 l83 0 1 -39 c2 -48 44 -141 90 -198 20 -24 88 -88 152 -142 156
-132 171 -151 211 -263 l10 -27 30 30 31 30 -32 62 c-29 56 -32 60 -38 37 -4
-17 -8 -21 -14 -12 -4 6 -16 12 -27 12 -27 0 -34 25 -16 54 15 22 14 25 -21
58 -20 20 -75 68 -122 108 -102 87 -154 154 -175 223 -16 55 -11 71 25 65 16
-2 26 -16 39 -54 26 -77 79 -141 206 -249 125 -106 148 -133 189 -212 27 -53
53 -73 41 -30 -20 63 -66 126 -150 201 -201 181 -251 239 -270 319 -7 27 -7
27 46 28 30 1 60 0 68 -1 9 -1 12 4 7 15 -3 9 -6 32 -6 51 l0 34 -95 0 -95 0
0 280 0 280 -126 0 c-105 0 -125 -2 -121 -14z m222 -376 c-4 -12 -9 -19 -12
-17 -3 3 -2 15 2 27 4 12 9 19 12 17 3 -3 2 -15 -2 -27z m12 -36 c-3 -3 -12
-4 -19 -1 -8 3 -5 6 6 6 11 1 17 -2 13 -5z m-93 -138 c-3 -14 -10 -29 -15 -32
-16 -9 -22 26 -10 53 15 33 35 17 25 -21z m43 -72 c-3 -3 -12 -4 -19 -1 -8 3
-5 6 6 6 11 1 17 -2 13 -5z"/>
<path d="M3920 2121 c0 -86 2 -100 18 -104 16 -4 16 -5 0 -6 -16 -1 -18 -16
-18 -176 l0 -175 -34 0 c-19 0 -36 -6 -38 -12 -4 -10 -10 -10 -32 0 -15 6 -42
12 -61 12 l-35 0 0 -50 0 -49 73 -3 72 -3 -3 -35 c-9 -107 -64 -185 -206 -293
-174 -132 -203 -169 -282 -359 -115 -281 -172 -320 -489 -332 -88 -3 -171 -11
-200 -20 -28 -9 -116 -55 -195 -102 -271 -163 -327 -162 -595 16 -60 40 -130
81 -155 92 -46 20 -55 21 -225 37 -280 27 -359 66 -429 214 -24 52 -46 74 -46
47 0 -18 51 -113 81 -151 34 -43 107 -84 185 -103 56 -14 311 -40 363 -37 14
1 27 -3 30 -7 3 -5 40 -26 81 -48 41 -21 82 -45 90 -53 34 -32 164 -111 216
-130 65 -25 141 -27 211 -6 28 8 111 52 184 97 191 116 202 119 403 129 170 8
247 20 299 46 79 40 145 131 206 286 42 105 84 188 116 225 14 17 67 63 118
103 112 88 167 139 167 155 0 6 8 14 19 17 25 6 70 102 78 165 6 50 7 52 36
52 l30 0 -6 -59 c-11 -121 -61 -190 -242 -330 -161 -125 -200 -177 -275 -366
-87 -219 -154 -296 -285 -325 -27 -6 -53 -16 -57 -23 -6 -9 -10 -9 -16 0 -6 9
-44 11 -149 6 -78 -3 -140 -10 -137 -14 2 -4 -1 -11 -7 -15 -6 -3 -15 -1 -19
5 -5 10 -17 10 -51 1 -56 -15 -94 -35 -215 -111 -126 -80 -188 -108 -266 -120
-94 -15 -167 15 -358 147 -153 105 -194 119 -424 139 -104 9 -188 22 -225 35
-33 11 -71 20 -83 21 -13 0 -17 3 -10 6 19 7 4 23 -23 23 -25 0 -43 16 -24 22
7 2 -1 22 -19 48 -24 38 -57 111 -85 193 -5 12 -17 17 -47 17 l-40 0 21 -57
c64 -175 133 -270 236 -321 73 -37 133 -49 305 -62 184 -14 229 -30 395 -138
155 -102 205 -126 294 -142 111 -20 191 5 394 127 152 91 202 110 310 119 47
4 74 12 83 23 12 15 14 14 28 -3 13 -19 19 -19 112 -8 54 6 124 21 155 33 97
37 197 141 197 204 0 23 7 37 24 48 15 10 38 52 66 121 57 142 96 196 210 283
216 167 288 264 298 403 l5 70 74 0 c56 0 74 3 70 13 -2 6 -15 56 -27 110 -16
69 -26 95 -33 88 -6 -6 -15 -11 -21 -11 -5 0 -1 6 9 14 17 12 18 19 8 63 -11
45 -9 64 22 194 19 79 37 154 40 167 5 22 5 22 -120 22 l-125 0 0 -99z m110
-261 c8 -5 12 -11 9 -14 -8 -8 -79 6 -79 15 0 12 51 11 70 -1z m-2585 -1400
c10 -11 15 -20 11 -20 -4 0 -19 9 -33 20 -17 13 -20 20 -11 20 8 0 23 -9 33
-20z"/>
<path d="M840 1577 c0 -11 65 -167 91 -219 79 -158 213 -330 346 -443 539
-460 1315 -473 1861 -32 54 44 62 55 57 75 -5 22 -3 24 19 18 63 -16 287 304
372 532 29 76 29 72 1 72 -18 0 -26 -11 -46 -67 -73 -205 -241 -440 -415 -580
-66 -53 -80 -70 -78 -89 4 -26 -7 -31 -25 -13 -8 8 -35 -2 -100 -39 -196 -111
-369 -163 -608 -181 -181 -14 -325 3 -506 59 -309 96 -573 294 -755 566 -54
81 -146 265 -159 317 -5 20 -13 27 -31 27 -13 0 -24 -1 -24 -3z"/>
<path d="M1340 1572 c0 -5 28 -51 63 -103 44 -67 69 -95 85 -97 15 -2 22 -9
18 -17 -6 -16 57 -82 130 -135 97 -73 301 -170 318 -153 17 18 -1 33 -68 57
-128 47 -221 109 -331 220 -61 61 -115 128 -139 169 -26 45 -45 67 -57 67 -11
0 -19 -4 -19 -8z"/>
<path d="M3040 1523 c-18 -32 -46 -74 -61 -93 -21 -25 -25 -36 -16 -42 6 -4
15 -8 19 -8 8 0 128 179 128 192 0 4 -9 8 -19 8 -13 0 -30 -19 -51 -57z"/>
<path d="M1750 1531 c0 -5 4 -21 10 -35 8 -22 5 -28 -23 -50 l-32 -26 38 0
c34 0 40 -4 54 -37 l16 -38 12 35 c10 31 16 35 50 38 l39 3 -29 23 c-27 22
-28 26 -18 60 13 42 12 43 -27 15 l-28 -22 -31 22 c-17 12 -31 18 -31 12z"/>
<path d="M2513 1527 c21 -54 19 -64 -15 -85 l-33 -22 41 0 c38 0 42 -3 56 -37
l14 -38 13 38 c11 34 16 37 49 37 l37 1 -29 23 c-27 22 -28 26 -17 57 14 41
10 44 -23 18 -28 -22 -35 -21 -76 8 -23 17 -24 17 -17 0z"/>
<path d="M2225 1416 l-30 -24 -28 20 c-34 24 -41 20 -27 -18 10 -26 8 -31 -22
-56 l-33 -27 43 -1 c26 0 42 -5 42 -12 0 -9 3 -9 12 0 7 7 37 12 68 12 51 1
54 2 35 16 -11 8 -27 19 -34 24 -12 7 -13 15 -3 46 6 21 10 39 9 41 -2 1 -16
-8 -32 -21z"/>
<path d="M2885 1329 c-60 -61 -188 -148 -279 -189 -153 -70 -376 -97 -540 -66
-48 10 -91 15 -93 12 -17 -17 13 -35 79 -47 143 -26 336 -13 478 33 128 41
330 160 330 195 0 7 6 13 13 13 17 0 99 84 91 93 -15 15 -31 5 -79 -44z"/>
<path d="M1248 1321 c-47 -29 -74 -51 -70 -59 5 -7 23 -1 56 19 26 17 51 28
54 25 3 -3 -6 -37 -20 -75 -14 -37 -23 -73 -19 -79 4 -7 35 8 84 39 43 27 75
54 72 59 -7 11 -30 1 -78 -33 -16 -10 -30 -17 -33 -14 -3 3 6 38 21 78 14 40
22 76 18 80 -4 4 -43 -13 -85 -40z"/>
<path d="M3055 1348 c-21 -12 -60 -58 -60 -70 0 -16 130 -117 139 -108 6 6 1
19 -13 34 l-23 25 21 27 c27 35 27 49 -4 79 -27 28 -32 29 -60 13z m53 -60
c-2 -12 -11 -26 -20 -32 -14 -8 -22 -6 -40 12 l-23 23 23 19 c29 24 65 11 60
-22z"/>
<path d="M2180 1273 c0 -5 5 -15 10 -23 8 -12 10 -11 10 8 0 12 -4 22 -10 22
-5 0 -10 -3 -10 -7z"/>
<path d="M1431 1106 c-70 -71 -71 -74 -9 -118 40 -28 48 -14 13 22 -23 24 -26
32 -15 45 16 19 34 19 50 0 7 -8 19 -15 28 -15 12 0 9 7 -11 28 l-27 29 20 18
c20 18 21 18 49 -9 47 -45 60 -21 15 25 -21 22 -41 39 -44 39 -3 0 -34 -29
-69 -64z"/>
<path d="M2846 1134 c-80 -81 30 -213 118 -143 38 30 49 64 36 105 -23 67
-104 87 -154 38z m105 -23 c16 -16 29 -39 29 -50 0 -28 -34 -61 -63 -61 -23 0
-59 31 -69 60 -8 24 9 60 34 70 34 13 37 12 69 -19z"/>
<path d="M1646 1049 c-3 -8 -12 -52 -20 -99 -22 -121 -17 -122 117 -24 45 32
54 43 41 48 -11 4 -35 -7 -68 -32 -28 -21 -56 -41 -62 -45 -7 -4 -6 19 4 69
11 55 12 78 4 86 -8 8 -13 8 -16 -3z"/>
<path d="M2653 1013 c-41 -17 -60 -30 -56 -39 4 -10 10 -11 23 -4 31 17 36 12
65 -60 15 -38 34 -70 42 -70 18 0 17 8 -16 88 l-29 70 24 6 c13 4 24 13 24 21
0 19 -2 18 -77 -12z"/>
<path d="M1856 872 c-14 -42 -26 -82 -26 -88 0 -10 67 -35 95 -35 27 -1 11 19
-24 30 -36 10 -39 14 -32 34 7 18 15 21 45 19 44 -4 48 14 5 23 -27 6 -30 10
-24 33 9 35 8 34 39 22 34 -12 56 -13 56 -1 0 8 -81 41 -101 41 -4 0 -19 -35
-33 -78z"/>
<path d="M2436 924 c-19 -18 -21 -55 -4 -72 7 -7 23 -12 38 -12 35 0 53 -14
48 -36 -3 -15 -12 -19 -41 -18 -41 1 -52 -20 -16 -31 31 -10 78 14 86 43 8 35
-7 55 -53 68 -28 8 -39 16 -39 30 0 15 7 19 33 18 21 -1 32 3 32 12 0 20 -64
18 -84 -2z"/>
<path d="M1017 903 c-3 -5 -1 -18 4 -31 11 -28 29 -21 22 8 -6 23 -19 34 -26
23z"/>
<path d="M2086 899 c-3 -8 -8 -49 -13 -91 -7 -58 -6 -79 3 -82 13 -5 24 15 24
45 0 33 29 21 50 -21 11 -22 27 -40 35 -40 20 0 19 6 -6 47 l-21 34 21 15 c24
17 29 65 8 82 -22 19 -96 27 -101 11z m82 -50 c2 -19 -2 -28 -15 -31 -30 -8
-43 2 -43 33 0 27 3 30 28 27 21 -2 28 -9 30 -29z"/>
</g>
</svg>
